<svg width="14" height="18" viewBox="0 0 14 18" fill="none" xmlns="http://www.w3.org/2000/svg">
<path d="M6.55987 17.7652C6.65767 17.9119 6.82235 18 6.99866 18C7.17496 18 7.33964 17.9119 7.43744 17.7652C8.68545 15.8932 10.5237 13.5813 11.8046 11.23C12.8289 9.34998 13.3268 7.74654 13.3268 6.32812C13.3268 2.8388 10.488 0 6.99866 0C3.50933 0 0.670532 2.8388 0.670532 6.32812C0.670532 7.74654 1.16845 9.34998 2.19269 11.23C3.4727 13.5795 5.31442 15.8971 6.55987 17.7652ZM6.99866 1.05469C9.90643 1.05469 12.2721 3.42035 12.2721 6.32812C12.2721 7.56577 11.8162 9.00415 10.8785 10.7254C9.77431 12.7522 8.19868 14.8081 6.99866 16.5364C5.79881 14.8083 4.22307 12.7523 3.11885 10.7254C2.18109 9.00415 1.72522 7.56577 1.72522 6.32812C1.72522 3.42035 4.09088 1.05469 6.99866 1.05469Z" fill="#676767"/>
<path d="M6.99866 9.49219C8.74332 9.49219 10.1627 8.07279 10.1627 6.32812C10.1627 4.58346 8.74332 3.16406 6.99866 3.16406C5.25399 3.16406 3.83459 4.58346 3.83459 6.32812C3.83459 8.07279 5.25399 9.49219 6.99866 9.49219ZM6.99866 4.21875C8.16177 4.21875 9.10803 5.16501 9.10803 6.32812C9.10803 7.49123 8.16177 8.4375 6.99866 8.4375C5.83555 8.4375 4.88928 7.49123 4.88928 6.32812C4.88928 5.16501 5.83555 4.21875 6.99866 4.21875Z" fill="#676767"/>
</svg>
